<?xml version="1.0" encoding="UTF-8" standalone="no"?>
<!DOCTYPE svg PUBLIC "-//W3C//DTD SVG 20010904//EN"
              "http://www.w3.org/TR/2001/REC-SVG-20010904/DTD/svg10.dtd">

<svg xmlns="http://www.w3.org/2000/svg"
     width="423.392mm" height="423.392mm"
     viewBox="0 0 1600 1600">
  <path id="Selection #1"
    fill="#0176bc" stroke="none" stroke-width="1"
    d="M 818.00,467.00
        C 818.00,467.00 527.00,467.00 527.00,467.00
          524.70,467.00 520.59,467.38 519.02,465.40
          517.46,463.42 518.00,453.90 518.00,451.00
          518.00,451.00 518.00,413.00 518.00,413.00
          518.00,413.00 518.00,337.00 518.00,337.00
          518.00,337.00 518.96,325.00 518.96,325.00
          518.96,325.00 518.96,312.00 518.96,312.00
          519.26,289.82 525.97,262.98 537.45,244.00
          553.91,216.78 583.89,202.04 613.00,192.33
          637.45,184.18 660.71,180.11 686.00,175.92
          717.34,170.73 749.25,167.05 781.00,167.00
          781.00,167.00 796.00,166.00 796.00,166.00
          796.00,166.00 807.00,166.00 807.00,166.00
          807.00,166.00 817.00,166.96 817.00,166.96
          817.00,166.96 827.00,166.96 827.00,166.96
          827.00,166.96 837.00,167.91 837.00,167.91
          837.00,167.91 866.00,170.85 866.00,170.85
          885.63,173.19 914.11,177.98 933.00,183.15
          948.87,187.50 963.94,194.12 978.00,202.60
          991.43,210.70 998.94,216.88 1010.00,228.00
          1029.44,247.53 1043.89,274.93 1049.20,302.00
          1052.90,320.91 1052.00,334.10 1052.00,353.00
          1052.00,353.00 1052.00,417.00 1052.00,417.00
          1052.00,417.00 1052.00,627.00 1052.00,627.00
          1051.91,685.89 1000.03,737.93 947.00,756.00
          914.30,767.13 899.68,767.00 866.00,767.00
          866.00,767.00 822.00,767.00 822.00,767.00
          822.00,767.00 641.00,767.00 641.00,767.00
          622.21,767.03 601.52,771.96 584.00,778.58
          525.28,800.74 476.63,854.71 459.43,915.00
          456.48,925.33 454.19,936.30 453.04,947.00
          453.04,947.00 453.04,956.00 453.04,956.00
          453.04,956.00 452.00,968.00 452.00,968.00
          452.00,968.00 452.00,1134.00 452.00,1134.00
          452.00,1134.00 367.00,1134.00 367.00,1134.00
          344.66,1134.00 320.94,1134.97 299.00,1130.55
          273.77,1125.48 245.42,1110.24 228.28,1091.00
          195.72,1054.42 182.19,1016.64 170.87,970.00
          161.76,932.44 155.55,894.51 152.91,856.00
          152.91,856.00 152.00,844.00 152.00,844.00
          152.00,844.00 152.00,808.00 152.00,808.00
          152.00,808.00 152.96,795.00 152.96,795.00
          154.24,765.76 159.38,736.67 165.20,708.00
          169.88,684.98 175.53,658.29 185.31,637.00
          208.35,586.82 245.28,556.43 298.00,541.29
          313.20,536.93 338.25,533.02 354.00,533.00
          354.00,533.00 818.00,533.00 818.00,533.00
          818.00,533.00 818.00,467.00 818.00,467.00 Z
        M 633.00,300.29
        C 616.68,302.66 606.15,306.22 595.53,320.00
          578.50,342.10 584.57,375.40 607.00,391.22
          614.49,396.50 624.93,399.17 634.00,399.82
          639.08,400.18 649.25,398.13 654.00,396.13
          661.63,392.91 667.29,389.26 672.82,383.00
          695.58,357.22 685.69,317.21 654.00,303.87
          648.39,301.51 639.06,299.86 633.00,300.29 Z" />
  <path id="Selection #2"
        fill="#fec007" stroke="none" stroke-width="1"
        d="M 1052.00,1133.00
           C 1052.00,1133.00 1052.00,1252.00 1052.00,1252.00
             1052.00,1292.58 1053.17,1332.33 1026.19,1366.00
             1020.61,1372.96 1016.03,1376.98 1009.00,1382.35
             975.62,1407.83 925.73,1417.39 885.00,1424.08
             861.00,1428.02 837.20,1430.43 813.00,1432.09
             813.00,1432.09 801.00,1433.00 801.00,1433.00
             801.00,1433.00 788.00,1433.00 788.00,1433.00
             788.00,1433.00 773.00,1434.00 773.00,1434.00
             773.00,1434.00 744.00,1433.00 744.00,1433.00
             744.00,1433.00 734.00,1432.09 734.00,1432.09
             734.00,1432.09 691.00,1427.27 691.00,1427.27
             642.27,1420.25 599.13,1410.12 563.00,1374.00
             553.29,1364.29 546.18,1355.96 539.28,1344.00
             532.93,1332.99 528.57,1323.23 525.00,1311.00
             522.17,1301.30 519.78,1291.11 519.00,1281.00
             519.00,1281.00 519.00,1272.00 519.00,1272.00
             519.00,1272.00 518.00,1260.00 518.00,1260.00
             518.00,1260.00 518.00,986.00 518.00,986.00
             518.00,986.00 519.04,974.00 519.04,974.00
             519.04,974.00 519.04,965.00 519.04,965.00
             520.62,950.01 526.22,933.33 533.11,920.00
             558.55,870.79 614.49,838.28 669.00,833.92
             669.00,833.92 681.00,833.00 681.00,833.00
             681.00,833.00 844.00,833.00 844.00,833.00
             844.00,833.00 930.00,833.00 930.00,833.00
             936.67,832.99 943.40,832.05 950.00,831.13
             1012.74,822.40 1067.36,777.01 1096.30,722.00
             1107.65,700.42 1117.96,669.54 1118.00,645.00
             1118.00,645.00 1118.00,475.00 1118.00,475.00
             1118.00,473.01 1117.77,469.19 1119.02,467.60
             1121.00,465.10 1132.61,466.00 1136.00,466.00
             1136.00,466.00 1191.00,466.00 1191.00,466.00
             1234.34,466.00 1273.98,462.23 1313.00,485.45
             1326.74,493.62 1335.00,501.53 1345.96,513.00
             1353.57,520.96 1362.70,534.32 1368.14,544.00
             1386.14,576.06 1396.62,611.08 1403.80,647.00
             1410.36,679.80 1416.58,712.52 1418.04,746.00
             1418.04,746.00 1419.00,759.00 1419.00,759.00
             1419.00,759.00 1419.00,790.00 1419.00,790.00
             1419.00,790.00 1417.96,802.00 1417.96,802.00
             1417.96,802.00 1417.96,811.00 1417.96,811.00
             1415.05,840.24 1410.73,869.28 1404.42,898.00
             1399.30,921.35 1394.76,943.07 1384.69,965.00
             1362.72,1012.86 1324.26,1044.08 1274.00,1058.42
             1258.63,1062.81 1232.89,1066.98 1217.00,1067.00
             1217.00,1067.00 752.00,1067.00 752.00,1067.00
             752.00,1067.00 752.00,1133.00 752.00,1133.00
             752.00,1133.00 1052.00,1133.00 1052.00,1133.00 Z
           M 933.00,1200.29
           C 916.68,1202.66 906.15,1206.22 895.53,1220.00
             879.45,1240.86 884.01,1272.16 904.00,1288.67
             912.25,1295.49 923.43,1299.06 934.00,1299.82
             937.91,1300.10 947.19,1298.50 951.00,1297.25
             988.01,1285.13 996.82,1237.55 968.00,1212.18
             963.18,1207.94 958.11,1204.97 952.00,1203.03
             946.54,1201.29 938.70,1199.88 933.00,1200.29 Z" />
</svg>
